<svg id="Layer_1" data-name="Layer 1" xmlns="http://www.w3.org/2000/svg" viewBox="0 0 165.74 165.74"><defs><style>.cls-1{fill:#fff;}.cls-2{fill:#1d1d1b;}</style></defs><rect class="cls-1" width="165.74" height="165.74"/><path class="cls-2" d="M406.66,574.58a6.35,6.35,0,1,1,6.35-6.35A6.36,6.36,0,0,1,406.66,574.58Zm0-11a4.64,4.64,0,1,0,4.64,4.64A4.65,4.65,0,0,0,406.66,563.59Z" transform="translate(-370.04 -429.44)"/><path class="cls-2" d="M406.66,572.19a4,4,0,1,1,4-4A4,4,0,0,1,406.66,572.19Zm0-6.21a2.26,2.26,0,1,0,2.26,2.25A2.25,2.25,0,0,0,406.66,566Z" transform="translate(-370.04 -429.44)"/><path class="cls-2" d="M385,575.37a54.72,54.72,0,0,1,3.7-6.26c1.35-2,2.79-4,4.27-5.9,3-3.82,6.18-7.49,9.53-11l.62-.66.31-.33.28-.32c.19-.21.38-.42.55-.65s.35-.45.51-.69a21.71,21.71,0,0,0,1.72-3,40.88,40.88,0,0,0,2.39-6.66,99.18,99.18,0,0,0,2.65-14.09c.61-4.76,1-9.56,1.28-14.37s.44-9.63.56-14.45c.19-9.65.14-19.31-.05-29,1.08,9.62,1.6,19.31,1.72,29,.07,4.85,0,9.7-.22,14.55s-.59,9.69-1.18,14.53a97.31,97.31,0,0,1-2.82,14.37,42,42,0,0,1-2.66,6.93,21,21,0,0,1-1.95,3.23c-.18.26-.4.5-.59.75s-.42.48-.65.72l-.33.35-.32.31-.64.64c-3.42,3.39-6.75,6.88-9.91,10.51q-2.37,2.73-4.6,5.58c-.73,1-1.46,1.92-2.16,2.91S385.66,574.33,385,575.37Z" transform="translate(-370.04 -429.44)"/><path class="cls-2" d="M414.8,469.94c1.93,4.05,3.62,8.22,5.22,12.42s3,8.47,4.34,12.77,2.46,8.66,3.51,13.05,1.85,8.82,2.52,13.29c.33,2.23.59,4.47.8,6.72s.38,4.51.46,6.77.08,4.53,0,6.79-.24,4.53-.53,6.78a55.66,55.66,0,0,1-3.19,13.2,35.54,35.54,0,0,1-7.06,11.48,38.94,38.94,0,0,0,6.07-11.83,49.11,49.11,0,0,0,1.63-6.45c.4-2.17.7-4.37.9-6.58a96.78,96.78,0,0,0,.16-13.3c-.22-4.44-.69-8.87-1.35-13.28s-1.45-8.79-2.38-13.16-2-8.7-3.14-13S420.37,487,419,482.7,416.3,474.17,414.8,469.94Z" transform="translate(-370.04 -429.44)"/><path class="cls-2" d="M411.5,489.19a30.73,30.73,0,0,0-3.38-5.76,28.3,28.3,0,0,0-4.52-4.88A24,24,0,0,0,398,475l-1.53-.61c-.52-.22-1.08-.4-1.59-.66a21.35,21.35,0,0,1-3-1.69,39.62,39.62,0,0,1-5.26-4.32,67.76,67.76,0,0,1-4.63-5c-1.46-1.72-2.85-3.5-4.19-5.32s-2.61-3.67-3.83-5.61a1.07,1.07,0,1,1,1.81-1.13v0l0,0a97.2,97.2,0,0,0,7.42,11c1.37,1.74,2.8,3.44,4.33,5a37.85,37.85,0,0,0,4.93,4.38,19.19,19.19,0,0,0,2.78,1.73c.48.27,1,.46,1.49.69l1.56.7a24.48,24.48,0,0,1,5.58,3.86,29.28,29.28,0,0,1,4.38,5.12A31.48,31.48,0,0,1,411.5,489.19Z" transform="translate(-370.04 -429.44)"/><path class="cls-2" d="M411.5,483.94a46.43,46.43,0,0,0-2.69-5.43,49.94,49.94,0,0,0-3.32-5.05,41.74,41.74,0,0,0-3.94-4.55l-1.1-1-.55-.51-.58-.46-1.17-.94-1.23-.83a26.33,26.33,0,0,0-2.56-1.5c-.88-.48-1.83-.94-2.72-1.45a32.48,32.48,0,0,1-5-3.65,26.2,26.2,0,0,1-4.12-4.73c-.3-.43-.56-.89-.84-1.34s-.52-.92-.74-1.41-.44-1-.64-1.47c-.09-.25-.19-.5-.27-.76s-.16-.51-.24-.84a1.08,1.08,0,0,1,.8-1.28,1.07,1.07,0,0,1,1.28.81v.07c0,.17.09.42.15.63s.14.45.2.68c.16.44.32.89.52,1.33s.41.87.61,1.31.46.85.72,1.26a24.68,24.68,0,0,0,3.64,4.58,31.71,31.71,0,0,0,4.63,3.68c.84.53,1.7,1,2.58,1.52a25.09,25.09,0,0,1,2.6,1.68c.42.31.84.61,1.24.92l1.17,1,.57.51c.19.17.37.36.55.54l1.08,1.1a41.52,41.52,0,0,1,3.79,4.79,47,47,0,0,1,3.12,5.24A45,45,0,0,1,411.5,483.94Z" transform="translate(-370.04 -429.44)"/><path class="cls-2" d="M422.77,485.59A39.4,39.4,0,0,1,425,475.45a59,59,0,0,1,4.4-9.48c.94-1.47,1.81-3,2.86-4.4.51-.7,1-1.44,1.53-2.13l1.65-2c.28-.34.54-.69.83-1l.88-1,1.77-1.94c.29-.33.61-.63.93-.94l.94-.91,1.89-1.83a1.07,1.07,0,1,1,1.49,1.53l0,0-.05.05-1.93,1.68-1,.85c-.32.28-.65.55-.94.86l-1.82,1.81-.92.9c-.29.31-.57.64-.85.95L435,460.36c-.57.65-1.07,1.34-1.61,2-1.1,1.31-2,2.76-3,4.16a57.4,57.4,0,0,0-4.81,9.11A38.53,38.53,0,0,0,422.77,485.59Z" transform="translate(-370.04 -429.44)"/><path class="cls-2" d="M410.47,443.17a19.93,19.93,0,0,1,7.24-5.18,17.29,17.29,0,0,1,9-1.28c.39.06.77.1,1.15.19l1.13.27a18.41,18.41,0,0,1,2.18.82l.53.23.51.28c.33.18.67.36,1,.56a22.39,22.39,0,0,1,1.86,1.33,22.08,22.08,0,0,1,5.63,6.9,40.82,40.82,0,0,0-6.61-5.54c-.58-.4-1.21-.7-1.81-1.06l-.94-.44-.47-.22-.48-.18a16.16,16.16,0,0,0-4-1,19.37,19.37,0,0,0-8.19.74A32.41,32.41,0,0,0,410.47,443.17Z" transform="translate(-370.04 -429.44)"/><path class="cls-2" d="M422,572.93a24.78,24.78,0,0,1,3.4-4.32,14.65,14.65,0,0,1,4.55-3.27,7,7,0,0,1,2.87-.6,4.65,4.65,0,0,1,.75.07,4.19,4.19,0,0,1,.76.18,3.74,3.74,0,0,1,1.39.83,4,4,0,0,1,.89,1.32,5.92,5.92,0,0,1,.42,1.46,10.85,10.85,0,0,1,0,2.9,17.6,17.6,0,0,1-1.61,5.41,10.34,10.34,0,0,1-1.57,2.42,3.6,3.6,0,0,1-1.29,1l-.22.07-.17,0-.35.08-.69.12c-1.83.3-3.65.46-5.47.61s-3.65.23-5.48.26l5.4-.89c1.8-.29,3.6-.59,5.36-1,.22,0,.44-.09.65-.15l.32-.09.15,0,.1-.05a2.7,2.7,0,0,0,.85-.71,9.81,9.81,0,0,0,1.32-2.2,17.09,17.09,0,0,0,1.43-5,10,10,0,0,0,0-2.56,3.9,3.9,0,0,0-.93-2.11,3,3,0,0,0-2.09-.82,6.44,6.44,0,0,0-2.47.4,11.91,11.91,0,0,0-2.33,1.19,19.73,19.73,0,0,0-2.15,1.61A34.15,34.15,0,0,0,422,572.93Z" transform="translate(-370.04 -429.44)"/><path class="cls-2" d="M389,571.34c2,.89,4,1.79,6.06,2.46.52.17,1,.25,1.6.5l.41.18.38.2a7.83,7.83,0,0,1,.75.41c1,.56,1.88,1.19,2.79,1.82s1.77,1.32,2.64,2,1.71,1.38,2.54,2.11a64.26,64.26,0,0,1,4.8,4.54c-1.86-1.2-3.64-2.47-5.42-3.76-.89-.63-1.76-1.29-2.65-1.93s-1.76-1.29-2.65-1.92-1.77-1.26-2.68-1.83a6.92,6.92,0,0,0-.68-.42,5.58,5.58,0,0,0-.67-.37c-.4-.2-1-.38-1.5-.6A26.08,26.08,0,0,1,389,571.34Z" transform="translate(-370.04 -429.44)"/><path class="cls-2" d="M409.66,558.42a18.9,18.9,0,0,1,2.73,1.88,23.77,23.77,0,0,1,2.44,2.27,23.1,23.1,0,0,1,3.78,5.52,23.55,23.55,0,0,1,1.24,3.14,15.15,15.15,0,0,1,.63,3.34,17.12,17.12,0,0,1-.84,6.64l-.12,0a42,42,0,0,0-.31-6.48,26,26,0,0,0-1.54-6.19,21.78,21.78,0,0,0-3.33-5.52,22.87,22.87,0,0,0-4.75-4.46Z" transform="translate(-370.04 -429.44)"/><path class="cls-2" d="M405.08,546.88c-.25-1.73-.56-3.44-.89-5.14-.18-.85-.34-1.7-.54-2.55-.09-.42-.2-.84-.31-1.26s-.19-.84-.31-1.25q-.66-2.5-1.54-4.93a40.07,40.07,0,0,0-2.06-4.7l-.18-.37.25-.28c1.14-1.31,2.32-2.59,3.51-3.86.59-.64,1.19-1.27,1.8-1.9s1.22-1.24,1.85-1.85c-.49.73-1,1.44-1.51,2.14s-1,1.41-1.56,2.1q-1.57,2.09-3.21,4.11l.06-.65a31.64,31.64,0,0,1,2.25,4.83,37.81,37.81,0,0,1,1.45,5.09,41.94,41.94,0,0,1,.81,5.22A35.38,35.38,0,0,1,405.08,546.88Z" transform="translate(-370.04 -429.44)"/><path class="cls-2" d="M410.71,518.79c-.83-1-1.63-2-2.43-3l-2.4-3c-.81-1-1.61-2-2.46-3a30.8,30.8,0,0,0-2.63-2.72l-.5-.46.47-.42c.53-.48,1.05-1,1.6-1.44s1.07-1,1.62-1.41c1.09-.93,2.21-1.84,3.37-2.7q-1.35,1.69-2.81,3.28c-.48.53-1,1.05-1.46,1.57s-1,1-1.5,1.55l0-.88.77.65.71.7c.24.23.46.47.69.71s.45.48.66.74a37.71,37.71,0,0,1,2.4,3.1c.38.53.74,1.08,1.09,1.63s.7,1.1,1,1.66A34.45,34.45,0,0,1,410.71,518.79Z" transform="translate(-370.04 -429.44)"/><path class="cls-2" d="M412.15,503c-.92-1-1.89-1.91-2.85-2.84l-1.47-1.36-1.48-1.33c-1-.88-2-1.75-3-2.6l-1.55-1.27c-.52-.41-1-.82-1.56-1.25l-.51-.43.44-.43c.5-.51,1-1,1.5-1.51s1-1,1.53-1.49c1-1,2.09-1.94,3.19-2.85q-1.25,1.74-2.61,3.39c-.44.56-.91,1.09-1.36,1.64s-.93,1.07-1.4,1.61l-.08-.86c1.11.78,2.18,1.62,3.22,2.48s2.05,1.77,3,2.74c.48.48,1,1,1.41,1.47s.9,1,1.33,1.54A22.29,22.29,0,0,1,412.15,503Z" transform="translate(-370.04 -429.44)"/><path class="cls-2" d="M427.41,565.54c1.42-1.89,2.78-3.78,4-5.75a34.3,34.3,0,0,0,1.68-3,15.43,15.43,0,0,0,1.19-3.15,7.37,7.37,0,0,0,.24-1.6,5.21,5.21,0,0,0,0-.79c0-.29-.07-.58-.09-.86-.13-1.15-.32-2.29-.52-3.43-.42-2.29-1-4.56-1.55-6.84a32.28,32.28,0,0,1,2.52,6.62,34.19,34.19,0,0,1,.75,3.48l.12.89a7.71,7.71,0,0,1,0,1,8.35,8.35,0,0,1-.25,1.88,19.12,19.12,0,0,1-3.29,6.41A31.3,31.3,0,0,1,427.41,565.54Z" transform="translate(-370.04 -429.44)"/><path class="cls-2" d="M432.2,534.65c.14-1,.37-1.94.58-2.87a18.4,18.4,0,0,0,.51-2.7,1.69,1.69,0,0,0,0-.45s0,0,0,0,0,0,0-.06l-.06-.08a3.39,3.39,0,0,1-.23-.34,11.31,11.31,0,0,1-.71-1.33,13,13,0,0,1-.93-2.82,27.31,27.31,0,0,1,1.8,2.32c.29.39.56.78.84,1.14.07.09.13.18.2.26l.05.06.07.08a1.4,1.4,0,0,1,.18.3,2.5,2.5,0,0,1,.14,1,7.22,7.22,0,0,1-.3,1.55,10.82,10.82,0,0,1-.54,1.41A11.82,11.82,0,0,1,432.2,534.65Z" transform="translate(-370.04 -429.44)"/><path class="cls-2" d="M430.91,521.26a9.53,9.53,0,0,0,1-1.81,4.24,4.24,0,0,0,.41-1.9,10.94,10.94,0,0,0-.6-1.91l-.7-2c-.48-1.31-.92-2.64-1.38-3.95l-1.34-4-1.28-4c-.4-1.34-.83-2.67-1.21-4-.8-2.68-1.55-5.37-2.18-8.11,1.14,2.57,2.15,5.17,3.12,7.79.5,1.31,1,2.63,1.42,3.95l1.34,4c.86,2.66,1.71,5.32,2.46,8,.19.67.38,1.34.55,2l.25,1a4.3,4.3,0,0,1,.17,1.11,4.46,4.46,0,0,1-.72,2.09A7.83,7.83,0,0,1,430.91,521.26Z" transform="translate(-370.04 -429.44)"/><path class="cls-2" d="M421.18,483.13a44.71,44.71,0,0,1,1.75-9.79,60.74,60.74,0,0,1,3.53-9.36c.35-.76.76-1.49,1.14-2.24l.57-1.11c.2-.37.42-.72.63-1.09l1.28-2.16,1.39-2.09.71-1.05c.23-.35.5-.67.74-1l1.53-2,.38-.51.41-.47.82-1,1.65-1.91a1.07,1.07,0,0,1,1.62,1.39l0,0-.05.05-1.69,1.77-.85.88-.43.45-.39.46-1.59,1.87c-.26.32-.54.62-.78.95l-.74,1-1.47,2-1.36,2.05c-.22.34-.46.68-.68,1l-.62,1.06c-.4.71-.85,1.4-1.23,2.13a60.49,60.49,0,0,0-4,9A44.76,44.76,0,0,0,421.18,483.13Z" transform="translate(-370.04 -429.44)"/><path class="cls-2" d="M412.15,481.21a52.3,52.3,0,0,0-5-10.17l-.78-1.18c-.26-.39-.55-.77-.82-1.15-.54-.78-1.16-1.48-1.75-2.22a28.4,28.4,0,0,0-4-3.87l-.55-.43-.27-.21-.3-.19-1.17-.74c-.78-.5-1.66-1-2.45-1.53a27.21,27.21,0,0,1-4.45-3.79A24.75,24.75,0,0,1,387,451a25.33,25.33,0,0,1-1.3-2.67c-.2-.46-.36-.93-.52-1.4-.08-.24-.16-.48-.23-.73s-.13-.48-.19-.78a1.07,1.07,0,1,1,2.09-.42v.07c0,.17.08.4.12.61s.11.43.17.65c.12.42.25.86.41,1.28a25.12,25.12,0,0,0,1.08,2.5,22.86,22.86,0,0,0,3.07,4.55,25.79,25.79,0,0,0,4,3.78c.36.29.76.53,1.14.8l1.17.8,1.2.83.3.21.28.24.55.48a28.74,28.74,0,0,1,4,4.19c.56.77,1.17,1.52,1.67,2.34.26.4.54.79.79,1.2l.73,1.23A53.26,53.26,0,0,1,412.15,481.21Z" transform="translate(-370.04 -429.44)"/><path class="cls-2" d="M413.1,479a63,63,0,0,0-4.17-10.41c-.45-.82-.86-1.66-1.35-2.45l-.71-1.2-.77-1.16-.39-.57-.42-.56-.84-1.1-.91-1c-.15-.17-.3-.35-.46-.52l-.49-.47c-.33-.32-.65-.65-1-.95l-1.07-.83c-.34-.28-.74-.57-1.12-.86l-.58-.44-.28-.22-.27-.23-1.08-1c-.35-.33-.68-.68-1-1s-.64-.72-1-1.09l-.46-.55c-.15-.19-.29-.39-.43-.58a26.71,26.71,0,0,1-2.95-5,25.43,25.43,0,0,1-1.07-2.71c-.16-.46-.29-.93-.42-1.4a14.71,14.71,0,0,1-.33-1.48,1.07,1.07,0,0,1,.86-1.24,1.08,1.08,0,0,1,1.24.87v.09c0,.38.13.84.23,1.27s.2.87.32,1.31c.24.87.55,1.72.87,2.56a25.05,25.05,0,0,0,2.54,4.8c.13.19.24.39.38.57l.41.54c.28.36.54.73.85,1.06s.6.69.91,1l1,1,.24.24.27.22.52.43,1.07.91,1.1.95c.35.33.67.69,1,1l.5.52.45.56.89,1.12.81,1.17.4.59c.13.2.24.41.37.61l.72,1.22c.23.41.45.83.67,1.25.46.82.84,1.69,1.25,2.54A63.2,63.2,0,0,1,413.1,479Z" transform="translate(-370.04 -429.44)"/><path class="cls-2" d="M412.84,473.18a60.85,60.85,0,0,0-2.82-8.36,39.9,39.9,0,0,0-1.93-3.94c-.34-.65-.74-1.25-1.13-1.87-.19-.31-.42-.59-.62-.88s-.42-.59-.66-.85l-.7-.81c-.25-.26-.52-.49-.77-.73l-.81-.75c-.28-.27-.58-.51-.84-.79a20,20,0,0,1-2.79-3.63,24.52,24.52,0,0,1-2-4.12c-.27-.72-.51-1.44-.72-2.18a21.61,21.61,0,0,1-.51-2.3,1.07,1.07,0,1,1,2.11-.33v.1a20.69,20.69,0,0,0,.33,2.05c.15.69.33,1.37.54,2a23.36,23.36,0,0,0,1.63,3.94,19.07,19.07,0,0,0,2.39,3.51c.22.29.49.52.73.78l.77.8c.26.28.53.56.78.85l.7.9c.24.3.43.62.64.94s.42.63.6,1c.36.66.73,1.31,1,2a38,38,0,0,1,1.71,4.12A57.81,57.81,0,0,1,412.84,473.18Z" transform="translate(-370.04 -429.44)"/><path class="cls-2" d="M411,587a10,10,0,0,1-3.12,1.53,7.1,7.1,0,0,1-3.58.12,6.41,6.41,0,0,1-3.16-1.88c-.79-.83-1.54-1.69-2.33-2.48a21.44,21.44,0,0,0-5.28-4c-1.95-1.13-4-2.14-6-3.24a40.7,40.7,0,0,1,6.47,2.35,20.92,20.92,0,0,1,3.06,1.71,19,19,0,0,1,2.68,2.29c.8.85,1.55,1.71,2.3,2.56a5.75,5.75,0,0,0,2.54,1.73,7.06,7.06,0,0,0,3.18.23A12.75,12.75,0,0,0,411,587Z" transform="translate(-370.04 -429.44)"/><path class="cls-2" d="M445.74,510.89a2.79,2.79,0,0,0,.53,1.43,3.07,3.07,0,0,0,2.47.85,5.35,5.35,0,0,0,1.7-.22,1.62,1.62,0,0,0,1.24-1.61,1.18,1.18,0,0,0-.61-1.07,6.75,6.75,0,0,0-1.93-.65l-1.5-.33a9.31,9.31,0,0,1-3-1.06,3.38,3.38,0,0,1-1.41-3,4,4,0,0,1,1.38-3.09,5.8,5.8,0,0,1,4-1.24,6.17,6.17,0,0,1,3.79,1.17,4.13,4.13,0,0,1,1.64,3.37h-2.78a2,2,0,0,0-1.12-1.78,3.89,3.89,0,0,0-1.73-.35,3.24,3.24,0,0,0-1.84.46,1.44,1.44,0,0,0-.68,1.26,1.2,1.2,0,0,0,.67,1.11,8.78,8.78,0,0,0,1.85.57l2.43.58a6.12,6.12,0,0,1,2.41,1,3.4,3.4,0,0,1,1.24,2.83,4,4,0,0,1-1.47,3.16,6.21,6.21,0,0,1-4.16,1.26,6.82,6.82,0,0,1-4.31-1.24,4.1,4.1,0,0,1-1.57-3.41Z" transform="translate(-370.04 -429.44)"/><path class="cls-2" d="M455.24,506.92V505h1.43v-2.86h2.65V505H461v1.91h-1.67v5.42a1.19,1.19,0,0,0,.17.79,1.77,1.77,0,0,0,1,.15H461v2l-1.27.05a3.45,3.45,0,0,1-2.6-.66,2,2,0,0,1-.45-1.42v-6.32Z" transform="translate(-370.04 -429.44)"/><path class="cls-2" d="M477.61,509.17a5.27,5.27,0,0,1-3.48,1h-2.89v5h-2.88V501.3h6a4.81,4.81,0,0,1,3.28,1.07,4.2,4.2,0,0,1,1.23,3.33A4.32,4.32,0,0,1,477.61,509.17Zm-2.21-5a2.35,2.35,0,0,0-1.55-.46h-2.61v4.09h2.61a2.26,2.26,0,0,0,1.55-.5,2.08,2.08,0,0,0,.55-1.59A1.93,1.93,0,0,0,475.4,504.17Z" transform="translate(-370.04 -429.44)"/><path class="cls-2" d="M487.63,505.12a4.23,4.23,0,0,1,1.77,1.52,5.14,5.14,0,0,1,.82,2.12,12.77,12.77,0,0,1,.08,2h-7.47A2.48,2.48,0,0,0,483.9,513a2.81,2.81,0,0,0,1.48.38,2.29,2.29,0,0,0,1.49-.47,2,2,0,0,0,.55-.71h2.75a3.44,3.44,0,0,1-1,1.86,5,5,0,0,1-3.86,1.5,5.57,5.57,0,0,1-3.62-1.27,5,5,0,0,1-1.56-4.11,5.58,5.58,0,0,1,1.41-4.09,4.94,4.94,0,0,1,3.67-1.42A5.91,5.91,0,0,1,487.63,505.12Zm-4,2.32a2.73,2.73,0,0,0-.71,1.59h4.62a2.24,2.24,0,0,0-.72-1.62,2.32,2.32,0,0,0-1.59-.56A2.13,2.13,0,0,0,483.61,507.44Z" transform="translate(-370.04 -429.44)"/><path class="cls-2" d="M490.61,506.92V505H492v-2.86h2.65V505h1.67v1.91h-1.67v5.42a1.28,1.28,0,0,0,.16.79,1.84,1.84,0,0,0,1,.15h.53v2l-1.27.05a3.45,3.45,0,0,1-2.6-.66,2,2,0,0,1-.45-1.42v-6.32Z" transform="translate(-370.04 -429.44)"/><path class="cls-2" d="M504.77,505.12a4.2,4.2,0,0,1,1.78,1.52,5,5,0,0,1,.81,2.12,11.49,11.49,0,0,1,.09,2H500a2.48,2.48,0,0,0,1.07,2.17,2.78,2.78,0,0,0,1.48.38,2.29,2.29,0,0,0,1.49-.47,2.16,2.16,0,0,0,.55-.71h2.74a3.35,3.35,0,0,1-1,1.86,5,5,0,0,1-3.86,1.5,5.57,5.57,0,0,1-3.62-1.27,5,5,0,0,1-1.57-4.11,5.58,5.58,0,0,1,1.42-4.09,4.93,4.93,0,0,1,3.67-1.42A5.83,5.83,0,0,1,504.77,505.12Zm-4,2.32A2.8,2.8,0,0,0,500,509h4.63a2.24,2.24,0,0,0-.72-1.62,2.36,2.36,0,0,0-1.59-.56A2.13,2.13,0,0,0,500.76,507.44Z" transform="translate(-370.04 -429.44)"/><path class="cls-2" d="M514.51,504.67l.23,0v2.75l-.45,0H514a2.21,2.21,0,0,0-2.17,1.06,4,4,0,0,0-.31,1.82v4.91h-2.71V504.91h2.56v1.79a5.78,5.78,0,0,1,1.09-1.4,2.94,2.94,0,0,1,2-.63Z" transform="translate(-370.04 -429.44)"/><path class="cls-2" d="M517.07,505.65a2.17,2.17,0,0,0,1.35-1,1.81,1.81,0,0,0,.17-.84H517v-2.48h2.77v2a3.31,3.31,0,0,1-.71,2.24,3.45,3.45,0,0,1-2,1.07Z" transform="translate(-370.04 -429.44)"/><path class="cls-2" d="M523.77,511.9a1.81,1.81,0,0,0,.36,1,2.52,2.52,0,0,0,1.86.54,2.77,2.77,0,0,0,1.26-.24.75.75,0,0,0,.47-.71.73.73,0,0,0-.38-.68,14.66,14.66,0,0,0-2.8-.81,5.78,5.78,0,0,1-2.47-1.09,2.32,2.32,0,0,1-.71-1.84,3.23,3.23,0,0,1,1.11-2.45,4.52,4.52,0,0,1,3.15-1,5.82,5.82,0,0,1,3.14.77,3.27,3.27,0,0,1,1.39,2.65h-2.68a1.6,1.6,0,0,0-.3-.82,1.85,1.85,0,0,0-1.51-.54,2.21,2.21,0,0,0-1.25.27.77.77,0,0,0-.37.64.7.7,0,0,0,.4.67,17.3,17.3,0,0,0,2.8.74,5.08,5.08,0,0,1,2.4,1.14,2.59,2.59,0,0,1,.79,1.93,3.12,3.12,0,0,1-1.13,2.49,5.38,5.38,0,0,1-3.52,1,5.24,5.24,0,0,1-3.58-1,3.3,3.3,0,0,1-1.15-2.6Z" transform="translate(-370.04 -429.44)"/><path class="cls-2" d="M445.81,533.86a3.42,3.42,0,0,0,.15,1.91c.43.92,1.43,1.37,3,1.37a6.41,6.41,0,0,0,2-.3,2.8,2.8,0,0,0,2.12-2.09,1.5,1.5,0,0,0-.36-1.61,5.78,5.78,0,0,0-2.07-.82l-1.79-.42a7.07,7.07,0,0,1-2.4-.91,2.4,2.4,0,0,1-.76-2.6,5.05,5.05,0,0,1,1.94-3,6.18,6.18,0,0,1,3.91-1.2,5.34,5.34,0,0,1,3.47,1.05c.86.7,1.13,1.82.8,3.36H454a3,3,0,0,0-.23-1.71c-.42-.72-1.32-1.08-2.69-1.08a4,4,0,0,0-2.53.7,2.78,2.78,0,0,0-1.06,1.61,1.28,1.28,0,0,0,.52,1.49,10.72,10.72,0,0,0,2.36.76l1.84.44a4.69,4.69,0,0,1,2,.87,2.72,2.72,0,0,1,.73,2.82,4.58,4.58,0,0,1-2.38,3.29,8.64,8.64,0,0,1-4.09,1,4.79,4.79,0,0,1-3.76-1.31,3.79,3.79,0,0,1-.68-3.55Z" transform="translate(-370.04 -429.44)"/><path class="cls-2" d="M459.36,525.42h1.72l-.61,2.82h1.61l-.29,1.38h-1.61l-1.4,6.58c-.08.35,0,.59.21.71a1.35,1.35,0,0,0,.64.1h.26l.34,0-.28,1.34a3.44,3.44,0,0,1-.64.12,5.12,5.12,0,0,1-.69,0c-.79,0-1.29-.2-1.48-.61a2.38,2.38,0,0,1-.09-1.57l1.42-6.68H457.1l.29-1.38h1.37Z" transform="translate(-370.04 -429.44)"/><path class="cls-2" d="M468.34,532.21a1.19,1.19,0,0,0,.89-.49,1.73,1.73,0,0,0,.25-.65,1.13,1.13,0,0,0-.35-1.26,2.91,2.91,0,0,0-1.69-.39,2.72,2.72,0,0,0-2,.72,2.81,2.81,0,0,0-.65,1.17h-1.58a3.75,3.75,0,0,1,1.76-2.59,5.76,5.76,0,0,1,2.85-.73,4.72,4.72,0,0,1,2.74.68,1.88,1.88,0,0,1,.66,2.11L470,536.59a.65.65,0,0,0,0,.42c0,.11.19.16.42.16h.26l.31,0-.27,1.26c-.28.07-.48.12-.63.14a4.24,4.24,0,0,1-.57,0,1.09,1.09,0,0,1-1.13-.62,2,2,0,0,1-.1-.94,6,6,0,0,1-1.74,1.18,5.3,5.3,0,0,1-2.24.5,2.6,2.6,0,0,1-2.12-.85,2.38,2.38,0,0,1-.43-2.14,3.47,3.47,0,0,1,1.34-2.17,5.08,5.08,0,0,1,2.5-1Zm-3.37,5a4.42,4.42,0,0,0,1.83-.42,3,3,0,0,0,1.89-2.25l.29-1.36a4,4,0,0,1-.87.33,7.94,7.94,0,0,1-1,.19l-1.05.13a4.69,4.69,0,0,0-1.47.38,1.94,1.94,0,0,0-1.08,1.42,1.12,1.12,0,0,0,.28,1.15A1.62,1.62,0,0,0,465,537.22Z" transform="translate(-370.04 -429.44)"/><path class="cls-2" d="M474.49,528.28h1.73l-2.13,10h-1.72Zm.81-3.79H477l-.42,1.92h-1.72Z" transform="translate(-370.04 -429.44)"/><path class="cls-2" d="M479.73,525.42h1.71l-.6,2.82h1.61l-.29,1.38h-1.61l-1.4,6.58c-.08.35,0,.59.2.71a1.38,1.38,0,0,0,.64.1h.27l.33,0-.28,1.34a3.5,3.5,0,0,1-.63.12,5.18,5.18,0,0,1-.7,0c-.79,0-1.28-.2-1.48-.61a2.38,2.38,0,0,1-.09-1.57l1.42-6.68h-1.36l.29-1.38h1.37Z" transform="translate(-370.04 -429.44)"/><path class="cls-2" d="M485,524.44h1.69l-1.1,5.16a6.22,6.22,0,0,1,1.32-1.07A4.21,4.21,0,0,1,489,528c1.47,0,2.35.51,2.65,1.53a5,5,0,0,1-.07,2.33l-1.37,6.47h-1.74l1.34-6.36a3.44,3.44,0,0,0,.07-1.63c-.2-.55-.72-.82-1.56-.82a3.51,3.51,0,0,0-2.07.72,4.42,4.42,0,0,0-1.44,2.74l-1.13,5.35H482Z" transform="translate(-370.04 -429.44)"/><path class="cls-2" d="M502.35,529.82a3.84,3.84,0,0,1,.3,1.78,11.73,11.73,0,0,1-.32,2.22h-7.39a3.81,3.81,0,0,0,.2,2.46,2,2,0,0,0,1.91.93,3.27,3.27,0,0,0,2.29-.88,3.9,3.9,0,0,0,.9-1.17h1.66a4.16,4.16,0,0,1-.7,1.23,5.76,5.76,0,0,1-1.07,1.12,5.16,5.16,0,0,1-2.12,1,6.4,6.4,0,0,1-1.43.15,3.41,3.41,0,0,1-2.9-1.37,4.64,4.64,0,0,1-.48-3.84,7.3,7.3,0,0,1,2.15-4,5.38,5.38,0,0,1,3.77-1.51,4,4,0,0,1,2,.5A2.79,2.79,0,0,1,502.35,529.82Zm-1.48,2.65a4,4,0,0,0-.1-1.76,1.94,1.94,0,0,0-2.07-1.22,3.2,3.2,0,0,0-2.14.84,4.14,4.14,0,0,0-1.29,2.14Z" transform="translate(-370.04 -429.44)"/><path class="cls-2" d="M505.13,535.16a2.15,2.15,0,0,0,.15,1.3c.31.54,1,.82,2.05.82a3.7,3.7,0,0,0,1.74-.42,1.76,1.76,0,0,0,1-1.26.88.88,0,0,0-.37-1,5.25,5.25,0,0,0-1.35-.48l-1.27-.34a5.09,5.09,0,0,1-1.75-.72,1.7,1.7,0,0,1-.68-1.9,3.65,3.65,0,0,1,1.52-2.31,4.88,4.88,0,0,1,3-.89c1.52,0,2.52.45,3,1.34a2.56,2.56,0,0,1,.23,1.83h-1.6a1.69,1.69,0,0,0-.19-1,2.14,2.14,0,0,0-1.89-.67,2.75,2.75,0,0,0-1.53.37,1.51,1.51,0,0,0-.7,1,1,1,0,0,0,.43,1,3.12,3.12,0,0,0,1,.42l1.07.27a7.18,7.18,0,0,1,2.27.86,1.87,1.87,0,0,1,.54,2,4,4,0,0,1-1.51,2.33,5.19,5.19,0,0,1-3.32,1c-1.5,0-2.49-.34-3-1a3.22,3.22,0,0,1-.46-2.52Z" transform="translate(-370.04 -429.44)"/></svg>