<svg id="Layer_1" data-name="Layer 1" xmlns="http://www.w3.org/2000/svg" viewBox="0 0 165.74 165.74"><defs><style>.cls-1{fill:#fff;}.cls-2{fill:#1d1d1b;}</style></defs><rect class="cls-1" width="165.74" height="165.74"/><path class="cls-2" d="M414.25,571.78a6.06,6.06,0,1,1,6.05-6A6.06,6.06,0,0,1,414.25,571.78Zm0-10.48a4.43,4.43,0,1,0,4.43,4.43A4.43,4.43,0,0,0,414.25,561.3Z" transform="translate(-370.04 -429.44)"/><path class="cls-2" d="M414.25,569.51a3.78,3.78,0,1,1,3.78-3.78A3.78,3.78,0,0,1,414.25,569.51Zm0-5.94a2.16,2.16,0,1,0,2.15,2.16A2.16,2.16,0,0,0,414.25,563.57Z" transform="translate(-370.04 -429.44)"/><path class="cls-2" d="M393.6,572.54a52.59,52.59,0,0,1,3.53-6c1.29-1.93,2.67-3.79,4.08-5.64q4.29-5.48,9.1-10.51l.59-.64.3-.31.27-.31a7.75,7.75,0,0,0,.52-.62,8,8,0,0,0,.48-.66,19.28,19.28,0,0,0,1.65-2.87,39.1,39.1,0,0,0,2.29-6.36,96.07,96.07,0,0,0,2.52-13.45c.59-4.55.95-9.13,1.22-13.72s.42-9.19.54-13.8c.18-9.21.14-18.44-.05-27.68,1,9.19,1.52,18.43,1.64,27.69.07,4.63,0,9.26-.2,13.89s-.57,9.26-1.13,13.87a92.56,92.56,0,0,1-2.7,13.73,40.22,40.22,0,0,1-2.54,6.61,20,20,0,0,1-1.86,3.09c-.17.25-.38.48-.57.71a6.68,6.68,0,0,1-.61.69l-.32.33-.3.31-.61.6c-3.27,3.24-6.45,6.57-9.47,10-1.5,1.74-3,3.52-4.38,5.33-.71.91-1.4,1.83-2.07,2.77S394.19,571.55,393.6,572.54Z" transform="translate(-370.04 -429.44)"/><path class="cls-2" d="M422,471.87c1.85,3.87,3.46,7.85,5,11.86s2.89,8.08,4.14,12.2,2.36,8.26,3.35,12.45,1.78,8.43,2.42,12.69c.31,2.13.55,4.28.76,6.42s.36,4.3.43,6.46.08,4.33,0,6.49-.22,4.32-.5,6.47a52.57,52.57,0,0,1-3.05,12.6,33.75,33.75,0,0,1-6.74,11,37.17,37.17,0,0,0,5.8-11.3,46.51,46.51,0,0,0,1.55-6.15c.38-2.08.68-4.18.86-6.29a91.24,91.24,0,0,0,.16-12.7c-.21-4.24-.66-8.47-1.29-12.68s-1.38-8.4-2.27-12.56-1.91-8.31-3-12.44-2.29-8.23-3.56-12.31S423.45,475.91,422,471.87Z" transform="translate(-370.04 -429.44)"/><path class="cls-2" d="M418.87,490.25a29.38,29.38,0,0,0-3.23-5.5,26.55,26.55,0,0,0-4.32-4.66,22.44,22.44,0,0,0-5.31-3.38l-1.45-.58c-.5-.21-1-.38-1.52-.63a21.59,21.59,0,0,1-2.85-1.62,37.55,37.55,0,0,1-5-4.12,63.74,63.74,0,0,1-4.42-4.74c-1.4-1.64-2.73-3.34-4-5.08s-2.5-3.5-3.66-5.35a1,1,0,1,1,1.72-1.09l0,0v0a94.24,94.24,0,0,0,7.09,10.5,63,63,0,0,0,4.14,4.8,35.75,35.75,0,0,0,4.7,4.18,19.35,19.35,0,0,0,2.66,1.66c.46.25.93.43,1.42.65l1.49.67a23.32,23.32,0,0,1,5.32,3.69,27.92,27.92,0,0,1,4.19,4.89A29.79,29.79,0,0,1,418.87,490.25Z" transform="translate(-370.04 -429.44)"/><path class="cls-2" d="M418.87,485.24a44,44,0,0,0-2.58-5.19,45,45,0,0,0-3.17-4.82,39.85,39.85,0,0,0-3.75-4.34l-1.05-1c-.18-.16-.35-.33-.53-.48l-.56-.45-1.11-.89-1.18-.8a22.94,22.94,0,0,0-2.45-1.42c-.83-.46-1.74-.9-2.58-1.39A30.4,30.4,0,0,1,395.1,461a24.85,24.85,0,0,1-3.92-4.51c-.29-.42-.54-.86-.81-1.28s-.49-.88-.7-1.35-.43-.92-.62-1.4c-.08-.25-.18-.48-.25-.73a7,7,0,0,1-.23-.8,1,1,0,0,1,2-.46v.08c0,.16.09.39.14.6s.14.43.2.64c.15.43.31.86.49,1.28s.4.83.59,1.25.44.81.69,1.2a23.48,23.48,0,0,0,3.47,4.37,28.88,28.88,0,0,0,4.42,3.51c.8.52,1.62.95,2.46,1.46a25.82,25.82,0,0,1,2.49,1.61l1.18.88,1.11,1,.56.48.51.52,1,1.05a39,39,0,0,1,3.63,4.58,48.32,48.32,0,0,1,3,5A45.6,45.6,0,0,1,418.87,485.24Z" transform="translate(-370.04 -429.44)"/><path class="cls-2" d="M429.63,486.81a36.7,36.7,0,0,1,2.17-9.68,56.27,56.27,0,0,1,4.2-9.05c.89-1.41,1.72-2.86,2.72-4.2.49-.68.95-1.38,1.47-2l1.57-2c.27-.32.52-.66.79-1l.85-.93,1.69-1.86a12.32,12.32,0,0,1,.88-.89l.9-.88,1.81-1.75a1,1,0,0,1,1.42,1.47l0,0-.05,0-1.84,1.61-.92.81c-.31.27-.62.53-.9.82l-1.74,1.73-.88.86c-.28.3-.54.61-.82.91l-1.63,1.83c-.54.62-1,1.28-1.53,1.91-1.05,1.26-1.93,2.65-2.88,4a55.6,55.6,0,0,0-4.6,8.7A36.75,36.75,0,0,0,429.63,486.81Z" transform="translate(-370.04 -429.44)"/><path class="cls-2" d="M417.88,446.3a19,19,0,0,1,6.92-4.94,16.57,16.57,0,0,1,8.63-1.23c.37.07.74.1,1.1.19l1.08.26a19.27,19.27,0,0,1,2.08.78l.5.22c.17.08.32.18.49.26s.64.35.95.54a17.46,17.46,0,0,1,1.78,1.28,21.15,21.15,0,0,1,5.38,6.58,38.65,38.65,0,0,0-6.32-5.29c-.55-.38-1.15-.67-1.72-1l-.9-.42-.45-.21-.46-.17a15.17,15.17,0,0,0-3.78-1,18.6,18.6,0,0,0-7.82.71A30.81,30.81,0,0,0,417.88,446.3Z" transform="translate(-370.04 -429.44)"/><path class="cls-2" d="M428.9,570.22a23.84,23.84,0,0,1,3.24-4.14,14.32,14.32,0,0,1,4.34-3.12,6.69,6.69,0,0,1,2.74-.57,4.28,4.28,0,0,1,.72.07,3.85,3.85,0,0,1,.73.17,3.4,3.4,0,0,1,1.32.8,3.7,3.7,0,0,1,.85,1.25,6,6,0,0,1,.41,1.39,10.3,10.3,0,0,1,0,2.77,16.6,16.6,0,0,1-1.54,5.17,10,10,0,0,1-1.5,2.32,3.42,3.42,0,0,1-1.22.92l-.21.07-.17,0-.33.07-.66.12c-1.75.28-3.49.44-5.23.57s-3.48.23-5.23.26l5.16-.85c1.72-.28,3.44-.56,5.12-.92.2-.05.42-.09.62-.15l.3-.08.15,0,.09,0a2.62,2.62,0,0,0,.81-.68,9.15,9.15,0,0,0,1.26-2.1,16,16,0,0,0,1.37-4.82,9.06,9.06,0,0,0,0-2.44,3.61,3.61,0,0,0-.89-2,2.9,2.9,0,0,0-2-.79,6,6,0,0,0-2.35.39A10.87,10.87,0,0,0,434.6,565a18,18,0,0,0-2.05,1.54A31.13,31.13,0,0,0,428.9,570.22Z" transform="translate(-370.04 -429.44)"/><path class="cls-2" d="M397.4,568.69a61.61,61.61,0,0,0,5.79,2.35c.49.17.95.24,1.52.48a2,2,0,0,1,.39.18l.37.18a8.06,8.06,0,0,1,.71.39c.93.54,1.8,1.15,2.67,1.74s1.69,1.26,2.52,1.91,1.64,1.32,2.43,2a60.45,60.45,0,0,1,4.58,4.34c-1.77-1.15-3.48-2.37-5.18-3.6-.85-.6-1.68-1.23-2.53-1.84S409,575.6,408.14,575s-1.69-1.21-2.56-1.75a4.85,4.85,0,0,0-.64-.4,6.11,6.11,0,0,0-.65-.36c-.38-.19-1-.36-1.43-.57A25,25,0,0,1,397.4,568.69Z" transform="translate(-370.04 -429.44)"/><path class="cls-2" d="M417.11,556.36a17.66,17.66,0,0,1,2.6,1.79,21.78,21.78,0,0,1,5.94,7.44,21,21,0,0,1,1.19,3,14.4,14.4,0,0,1,.6,3.18,16.13,16.13,0,0,1-.8,6.34l-.12,0a40.84,40.84,0,0,0-.29-6.19,25.33,25.33,0,0,0-1.47-5.91,21,21,0,0,0-3.18-5.27,22.07,22.07,0,0,0-4.53-4.26Z" transform="translate(-370.04 -429.44)"/><path class="cls-2" d="M412.74,545.34c-.25-1.65-.54-3.29-.85-4.92-.17-.81-.33-1.62-.52-2.42-.09-.41-.19-.81-.29-1.21s-.19-.8-.3-1.19q-.63-2.4-1.47-4.71a41.57,41.57,0,0,0-2-4.49l-.17-.35.23-.27c1.1-1.25,2.22-2.47,3.35-3.69.57-.61,1.15-1.21,1.73-1.81s1.17-1.18,1.77-1.76q-.71,1-1.44,2c-.49.67-1,1.34-1.49,2-1,1.33-2,2.64-3.08,3.93l.06-.62a30.52,30.52,0,0,1,2.15,4.6,38,38,0,0,1,1.39,4.87,41.89,41.89,0,0,1,.77,5A33.68,33.68,0,0,1,412.74,545.34Z" transform="translate(-370.04 -429.44)"/><path class="cls-2" d="M418.11,518.52c-.79-1-1.56-1.93-2.32-2.91l-2.29-2.89c-.78-1-1.54-1.91-2.35-2.82a32.52,32.52,0,0,0-2.51-2.6l-.48-.43.45-.41c.51-.46,1-.93,1.52-1.38s1-.9,1.56-1.34c1-.89,2.1-1.76,3.21-2.58-.85,1.09-1.76,2.12-2.68,3.13-.46.51-.93,1-1.4,1.51s-.95,1-1.42,1.47l0-.84c.24.21.49.41.73.63s.45.44.68.66.44.45.66.68.43.46.62.71a34,34,0,0,1,2.3,3c.37.51.71,1,1,1.55s.67,1,1,1.59A33.53,33.53,0,0,1,418.11,518.52Z" transform="translate(-370.04 -429.44)"/><path class="cls-2" d="M419.49,503.39c-.88-.94-1.8-1.83-2.72-2.71l-1.41-1.3-1.42-1.27c-1-.84-1.91-1.68-2.9-2.48l-1.47-1.21c-.5-.4-1-.79-1.49-1.2l-.49-.41.41-.41c.48-.49.95-1,1.44-1.45s1-.95,1.47-1.41c1-.94,2-1.86,3-2.73-.79,1.11-1.63,2.19-2.49,3.24-.42.53-.87,1-1.31,1.56s-.88,1-1.33,1.54l-.07-.82c1.05.74,2.07,1.54,3.07,2.37s1.95,1.69,2.87,2.61c.46.46.91.92,1.34,1.41s.86,1,1.26,1.47A20.42,20.42,0,0,1,419.49,503.39Z" transform="translate(-370.04 -429.44)"/><path class="cls-2" d="M434.06,563.15c1.35-1.8,2.65-3.61,3.82-5.48a31.43,31.43,0,0,0,1.61-2.88,14.27,14.27,0,0,0,1.13-3,6.68,6.68,0,0,0,.24-1.53,6.32,6.32,0,0,0,0-.75c0-.28-.07-.55-.09-.82-.12-1.1-.31-2.19-.5-3.28-.4-2.18-.91-4.35-1.47-6.53a30.72,30.72,0,0,1,2.4,6.32,31.28,31.28,0,0,1,.71,3.33c.05.28.08.57.12.85a7,7,0,0,1,0,.92,8,8,0,0,1-.24,1.78,18.18,18.18,0,0,1-3.14,6.13A29.68,29.68,0,0,1,434.06,563.15Z" transform="translate(-370.04 -429.44)"/><path class="cls-2" d="M438.63,533.66c.14-.95.36-1.85.56-2.75a17.41,17.41,0,0,0,.48-2.57,1,1,0,0,0,0-.43s0,0,0,0l0-.06-.06-.08a3,3,0,0,1-.22-.31,12,12,0,0,1-.68-1.27,13.15,13.15,0,0,1-.89-2.7,27.15,27.15,0,0,1,1.73,2.22c.26.37.52.74.79,1.08a2.73,2.73,0,0,0,.2.25l0,.06s0,0,.07.08a1.1,1.1,0,0,1,.17.29,2.07,2.07,0,0,1,.13.94,6.17,6.17,0,0,1-.29,1.48,10.28,10.28,0,0,1-.51,1.34A11.43,11.43,0,0,1,438.63,533.66Z" transform="translate(-370.04 -429.44)"/><path class="cls-2" d="M437.4,520.88a9.54,9.54,0,0,0,1-1.73,3.89,3.89,0,0,0,.39-1.82,10.77,10.77,0,0,0-.56-1.83l-.68-1.88c-.45-1.25-.87-2.51-1.32-3.77l-1.27-3.79-1.22-3.8c-.39-1.28-.8-2.55-1.17-3.83-.75-2.56-1.47-5.13-2.07-7.74,1.09,2.45,2,4.94,3,7.44.47,1.25.9,2.51,1.35,3.77l1.29,3.78c.82,2.54,1.62,5.08,2.34,7.66.18.64.36,1.28.53,1.93l.24,1a4.44,4.44,0,0,1,.16,1.06,4.16,4.16,0,0,1-.69,2A8.08,8.08,0,0,1,437.4,520.88Z" transform="translate(-370.04 -429.44)"/><path class="cls-2" d="M428.11,484.46a42.68,42.68,0,0,1,1.67-9.35,58.67,58.67,0,0,1,3.37-8.93c.33-.73.73-1.42,1.08-2.14l.56-1.06c.18-.35.4-.69.6-1l1.22-2.07,1.33-2,.67-1c.22-.34.48-.64.71-1l1.46-1.91.36-.48.4-.46.78-.91,1.57-1.82a1,1,0,0,1,1.55,1.33l0,0,0,.05-1.62,1.69-.81.84-.41.43-.38.44-1.51,1.79c-.25.3-.52.59-.75.9l-.7.94-1.41,1.88-1.3,2c-.21.33-.44.65-.64,1l-.6,1c-.38.68-.81,1.34-1.17,2a57.51,57.51,0,0,0-3.79,8.62A42,42,0,0,0,428.11,484.46Z" transform="translate(-370.04 -429.44)"/><path class="cls-2" d="M419.49,482.63a49.6,49.6,0,0,0-4.81-9.71l-.74-1.13c-.25-.38-.53-.73-.79-1.1-.51-.74-1.11-1.41-1.67-2.11a26.38,26.38,0,0,0-3.85-3.7l-.53-.41-.26-.2-.28-.18-1.12-.71c-.74-.48-1.58-.94-2.34-1.46a26.17,26.17,0,0,1-4.25-3.62,23.27,23.27,0,0,1-3.36-4.52,22.26,22.26,0,0,1-1.24-2.55,14.22,14.22,0,0,1-.5-1.34c-.07-.23-.15-.45-.22-.69s-.12-.46-.18-.75a1,1,0,0,1,2-.4v.07c0,.16.07.38.11.58s.11.41.16.62c.12.41.25.82.4,1.23a21.17,21.17,0,0,0,4,6.73,25.4,25.4,0,0,0,3.86,3.61c.34.28.72.5,1.09.76s.72.48,1.11.76l1.15.8.29.2.26.23.53.45a27.62,27.62,0,0,1,3.8,4c.54.74,1.12,1.46,1.6,2.24.25.38.51.76.75,1.15l.7,1.17A50.55,50.55,0,0,1,419.49,482.63Z" transform="translate(-370.04 -429.44)"/><path class="cls-2" d="M420.39,480.52a59.77,59.77,0,0,0-4-9.94c-.43-.78-.82-1.58-1.29-2.34-.22-.38-.45-.77-.68-1.14L413.7,466c-.12-.18-.24-.37-.37-.55l-.4-.53-.8-1.05-.87-1c-.14-.16-.28-.33-.43-.49l-.47-.45c-.32-.3-.63-.62-.95-.91l-1-.8c-.33-.26-.7-.54-1.07-.81l-.55-.42-.27-.21-.26-.23-1-.91c-.34-.32-.65-.66-1-1s-.62-.69-.92-1l-.44-.53c-.15-.18-.28-.37-.41-.55a26,26,0,0,1-2.82-4.77,27.21,27.21,0,0,1-1-2.59c-.16-.44-.29-.89-.41-1.34s-.23-.9-.32-1.42a1,1,0,0,1,2-.35v.08a12.16,12.16,0,0,0,.22,1.22c.09.42.19.84.31,1.25a24.39,24.39,0,0,0,3.25,7c.12.18.23.37.36.54l.4.52a12.93,12.93,0,0,0,.81,1c.29.32.57.65.87,1l.93.91.24.23.25.21.5.42,1,.86,1.05.9c.33.32.64.67,1,1l.47.5c.15.17.28.35.43.53l.85,1.07.77,1.12.38.56c.13.19.24.39.35.58l.7,1.17c.22.39.43.79.64,1.19.44.79.8,1.62,1.19,2.43A60.16,60.16,0,0,1,420.39,480.52Z" transform="translate(-370.04 -429.44)"/><path class="cls-2" d="M420.15,475a56.74,56.74,0,0,0-2.7-8,36.49,36.49,0,0,0-1.84-3.77c-.32-.61-.71-1.19-1.08-1.78-.18-.29-.4-.56-.59-.84s-.4-.56-.63-.81l-.67-.78c-.24-.24-.49-.46-.74-.69s-.5-.47-.77-.72a9.58,9.58,0,0,1-.8-.76,19.12,19.12,0,0,1-2.67-3.46,23,23,0,0,1-1.91-3.93c-.26-.69-.49-1.38-.69-2.09a22.09,22.09,0,0,1-.49-2.19,1,1,0,0,1,2-.31.07.07,0,0,1,0,0v0a18,18,0,0,0,.32,1.95c.15.66.32,1.32.52,2a21.2,21.2,0,0,0,1.56,3.75,16.71,16.71,0,0,0,2.28,3.36,9.73,9.73,0,0,0,.69.75l.73.76c.25.27.51.53.75.81l.67.86a9.46,9.46,0,0,1,.61.9c.19.3.4.6.57.91.34.63.7,1.25,1,1.9a38.29,38.29,0,0,1,1.63,3.93A57.11,57.11,0,0,1,420.15,475Z" transform="translate(-370.04 -429.44)"/><path class="cls-2" d="M418.38,583.62a9.41,9.41,0,0,1-3,1.46,6.81,6.81,0,0,1-3.42.11,6.12,6.12,0,0,1-3-1.79c-.75-.79-1.47-1.61-2.22-2.37a20.62,20.62,0,0,0-5-3.82c-1.87-1.07-3.82-2-5.74-3.09a38.38,38.38,0,0,1,6.18,2.24,20.79,20.79,0,0,1,2.91,1.63,18,18,0,0,1,2.57,2.19c.76.81,1.47,1.63,2.19,2.44a5.52,5.52,0,0,0,2.42,1.66,6.78,6.78,0,0,0,3,.21A12,12,0,0,0,418.38,583.62Z" transform="translate(-370.04 -429.44)"/><path class="cls-2" d="M456.18,559.38a2.25,2.25,0,0,0,.41,1.11,2.42,2.42,0,0,0,1.92.66,4.09,4.09,0,0,0,1.33-.17,1.26,1.26,0,0,0,1-1.25.91.91,0,0,0-.47-.83,5.11,5.11,0,0,0-1.5-.51l-1.17-.25a7.2,7.2,0,0,1-2.36-.83,2.64,2.64,0,0,1-1.1-2.34,3.12,3.12,0,0,1,1.07-2.41,4.56,4.56,0,0,1,3.14-1,4.86,4.86,0,0,1,2.95.91,3.21,3.21,0,0,1,1.27,2.62h-2.16a1.55,1.55,0,0,0-.87-1.38,3,3,0,0,0-1.35-.27,2.63,2.63,0,0,0-1.43.35,1.11,1.11,0,0,0-.53,1,.93.93,0,0,0,.53.87,6.86,6.86,0,0,0,1.43.44l1.9.45a4.94,4.94,0,0,1,1.86.78,2.64,2.64,0,0,1,1,2.21,3.13,3.13,0,0,1-1.14,2.46,4.86,4.86,0,0,1-3.24,1,5.28,5.28,0,0,1-3.35-1,3.19,3.19,0,0,1-1.22-2.65Z" transform="translate(-370.04 -429.44)"/><path class="cls-2" d="M463.57,556.29V554.8h1.12v-2.22h2.06v2.22h1.3v1.49h-1.3v4.22c0,.33,0,.53.13.61s.33.12.76.12h.41v1.56l-1,0a2.6,2.6,0,0,1-2-.51,1.5,1.5,0,0,1-.35-1.1v-4.92Z" transform="translate(-370.04 -429.44)"/><path class="cls-2" d="M481,558a4.09,4.09,0,0,1-2.71.79H476v3.88h-2.25V551.92h4.64a3.79,3.79,0,0,1,2.56.83,3.29,3.29,0,0,1,.95,2.59A3.36,3.36,0,0,1,481,558Zm-1.72-3.89a1.83,1.83,0,0,0-1.2-.36h-2V557h2a1.73,1.73,0,0,0,1.2-.39,1.54,1.54,0,0,0,.43-1.23A1.47,1.47,0,0,0,479.25,554.15Z" transform="translate(-370.04 -429.44)"/><path class="cls-2" d="M488.76,554.89a3.27,3.27,0,0,1,1.38,1.18,4,4,0,0,1,.64,1.65,11.17,11.17,0,0,1,.07,1.59H485a1.89,1.89,0,0,0,.84,1.68,2.12,2.12,0,0,0,1.15.3,1.81,1.81,0,0,0,1.16-.36,1.91,1.91,0,0,0,.43-.55h2.13a2.65,2.65,0,0,1-.78,1.44,3.85,3.85,0,0,1-3,1.17,4.33,4.33,0,0,1-2.81-1,3.87,3.87,0,0,1-1.22-3.19,4.31,4.31,0,0,1,1.1-3.18,3.83,3.83,0,0,1,2.85-1.11A4.51,4.51,0,0,1,488.76,554.89Zm-3.12,1.81a2.14,2.14,0,0,0-.56,1.23h3.6a1.73,1.73,0,0,0-.56-1.26,1.79,1.79,0,0,0-1.23-.43A1.63,1.63,0,0,0,485.64,556.7Z" transform="translate(-370.04 -429.44)"/><path class="cls-2" d="M491.08,556.29V554.8h1.12v-2.22h2.06v2.22h1.3v1.49h-1.3v4.22c0,.33,0,.53.13.61s.33.12.76.12h.41v1.56l-1,0a2.6,2.6,0,0,1-2-.51,1.5,1.5,0,0,1-.35-1.1v-4.92Z" transform="translate(-370.04 -429.44)"/><path class="cls-2" d="M502.1,554.89a3.27,3.27,0,0,1,1.38,1.18,4,4,0,0,1,.64,1.65,10.08,10.08,0,0,1,.06,1.59h-5.81a1.89,1.89,0,0,0,.84,1.68,2.09,2.09,0,0,0,1.15.3,1.76,1.76,0,0,0,1.15-.36,1.62,1.62,0,0,0,.43-.55h2.14a2.65,2.65,0,0,1-.78,1.44,3.85,3.85,0,0,1-3,1.17,4.33,4.33,0,0,1-2.81-1,3.84,3.84,0,0,1-1.22-3.19,4.27,4.27,0,0,1,1.1-3.18,3.83,3.83,0,0,1,2.85-1.11A4.54,4.54,0,0,1,502.1,554.89ZM499,556.7a2.14,2.14,0,0,0-.56,1.23H502a1.77,1.77,0,0,0-.56-1.26,1.8,1.8,0,0,0-1.24-.43A1.62,1.62,0,0,0,499,556.7Z" transform="translate(-370.04 -429.44)"/><path class="cls-2" d="M509.68,554.54l.17,0v2.13l-.35,0h-.25a1.72,1.72,0,0,0-1.69.82,3.21,3.21,0,0,0-.24,1.42v3.81h-2.1v-8h2v1.39a4.47,4.47,0,0,1,.84-1.09,2.34,2.34,0,0,1,1.53-.49Z" transform="translate(-370.04 -429.44)"/><path class="cls-2" d="M511.67,555.3a1.61,1.61,0,0,0,1-.77,1.25,1.25,0,0,0,.13-.65h-1.21V552h2.15v1.54a2.54,2.54,0,0,1-.55,1.74,2.58,2.58,0,0,1-1.56.83Z" transform="translate(-370.04 -429.44)"/><path class="cls-2" d="M516.87,560.17a1.42,1.42,0,0,0,.29.79,1.94,1.94,0,0,0,1.44.41,2.31,2.31,0,0,0,1-.18.58.58,0,0,0,.36-.55.6.6,0,0,0-.29-.53,12.66,12.66,0,0,0-2.19-.63,4.61,4.61,0,0,1-1.92-.85,1.8,1.8,0,0,1-.55-1.43,2.48,2.48,0,0,1,.87-1.9,3.49,3.49,0,0,1,2.45-.8,4.5,4.5,0,0,1,2.44.6,2.58,2.58,0,0,1,1.08,2.06h-2.09a1.13,1.13,0,0,0-.23-.63,1.41,1.41,0,0,0-1.17-.43,1.68,1.68,0,0,0-1,.21.61.61,0,0,0-.29.5.55.55,0,0,0,.3.52,13.59,13.59,0,0,0,2.18.58,3.94,3.94,0,0,1,1.87.89,2,2,0,0,1,.62,1.5,2.45,2.45,0,0,1-.89,1.94,4.14,4.14,0,0,1-2.73.75,4.08,4.08,0,0,1-2.78-.8,2.57,2.57,0,0,1-.9-2Z" transform="translate(-370.04 -429.44)"/><path class="cls-2" d="M456.24,577.24a2.71,2.71,0,0,0,.12,1.49c.33.71,1.11,1.07,2.33,1.07a4.87,4.87,0,0,0,1.54-.24,2.19,2.19,0,0,0,1.65-1.62,1.15,1.15,0,0,0-.29-1.25,4.26,4.26,0,0,0-1.6-.64l-1.39-.33a5.49,5.49,0,0,1-1.87-.71,1.85,1.85,0,0,1-.59-2,4,4,0,0,1,1.51-2.38,4.81,4.81,0,0,1,3-.94,4.17,4.17,0,0,1,2.69.82,2.45,2.45,0,0,1,.63,2.61h-1.37a2.33,2.33,0,0,0-.18-1.32,2.23,2.23,0,0,0-2.09-.85,3.06,3.06,0,0,0-2,.55,2.23,2.23,0,0,0-.83,1.26,1,1,0,0,0,.41,1.15,8.27,8.27,0,0,0,1.83.59l1.44.34a3.83,3.83,0,0,1,1.54.68,2.11,2.11,0,0,1,.56,2.2,3.54,3.54,0,0,1-1.84,2.55,6.8,6.8,0,0,1-3.19.77,3.7,3.7,0,0,1-2.92-1,2.93,2.93,0,0,1-.53-2.76Z" transform="translate(-370.04 -429.44)"/><path class="cls-2" d="M466.78,570.68h1.33l-.47,2.19h1.26l-.23,1.08h-1.25l-1.09,5.12c-.06.27,0,.45.16.55a1.11,1.11,0,0,0,.49.08h.21l.26,0-.22,1a2.66,2.66,0,0,1-.49.1,4.63,4.63,0,0,1-.54,0c-.61,0-1-.16-1.15-.47a1.84,1.84,0,0,1-.07-1.23l1.1-5.19H465l.23-1.08h1.06Z" transform="translate(-370.04 -429.44)"/><path class="cls-2" d="M473.76,576a1,1,0,0,0,.7-.38,1.58,1.58,0,0,0,.19-.5.89.89,0,0,0-.28-1,2.68,2.68,0,0,0-2.89.25,2.26,2.26,0,0,0-.5.92h-1.23a2.88,2.88,0,0,1,1.37-2,4.48,4.48,0,0,1,2.22-.57,3.68,3.68,0,0,1,2.13.53,1.48,1.48,0,0,1,.51,1.64l-1,4.52a.52.52,0,0,0,0,.33c0,.08.14.12.33.12h.2l.24,0-.21,1a3.05,3.05,0,0,1-.49.11,2.69,2.69,0,0,1-.44,0,.87.87,0,0,1-.89-.48,1.71,1.71,0,0,1-.07-.73,4.58,4.58,0,0,1-1.35.92,4.1,4.1,0,0,1-1.75.39,2,2,0,0,1-1.64-.66,1.86,1.86,0,0,1-.34-1.66,2.74,2.74,0,0,1,1-1.7,4.11,4.11,0,0,1,1.95-.74Zm-2.62,3.9a3.6,3.6,0,0,0,1.43-.32,2.42,2.42,0,0,0,1.47-1.75l.22-1.07a2.54,2.54,0,0,1-.68.26,5.79,5.79,0,0,1-.77.15l-.82.1a3.45,3.45,0,0,0-1.15.3,1.53,1.53,0,0,0-.84,1.1.89.89,0,0,0,.23.9A1.26,1.26,0,0,0,471.14,579.86Z" transform="translate(-370.04 -429.44)"/><path class="cls-2" d="M478.55,572.91h1.34l-1.66,7.8h-1.34Zm.63-2.95h1.34l-.32,1.49h-1.34Z" transform="translate(-370.04 -429.44)"/><path class="cls-2" d="M482.62,570.68H484l-.46,2.19h1.25l-.23,1.08h-1.25l-1.09,5.12c-.06.27,0,.45.16.55a1.13,1.13,0,0,0,.5.08h.2l.26,0-.21,1a3,3,0,0,1-.5.1,4.63,4.63,0,0,1-.54,0c-.61,0-1-.16-1.15-.47a1.84,1.84,0,0,1-.07-1.23l1.1-5.19h-1.06l.23-1.08h1.06Z" transform="translate(-370.04 -429.44)"/><path class="cls-2" d="M486.69,569.92H488l-.85,4a5.53,5.53,0,0,1,1-.83,3.3,3.3,0,0,1,1.68-.42c1.14,0,1.82.4,2.06,1.19a3.87,3.87,0,0,1-.05,1.81l-1.07,5h-1.36l1.05-4.94a2.67,2.67,0,0,0,0-1.27c-.15-.43-.56-.64-1.21-.64a2.76,2.76,0,0,0-1.61.56,3.47,3.47,0,0,0-1.12,2.13l-.88,4.16h-1.32Z" transform="translate(-370.04 -429.44)"/><path class="cls-2" d="M500.21,574.1a3.06,3.06,0,0,1,.24,1.39,9.13,9.13,0,0,1-.25,1.72h-5.75a3,3,0,0,0,.16,1.92,1.51,1.51,0,0,0,1.48.72,2.61,2.61,0,0,0,1.79-.68,3,3,0,0,0,.69-.92h1.3a3.64,3.64,0,0,1-.55,1,4.27,4.27,0,0,1-.83.86,3.85,3.85,0,0,1-1.65.8,5.49,5.49,0,0,1-1.11.11,2.61,2.61,0,0,1-2.25-1.06,3.62,3.62,0,0,1-.39-3,5.69,5.69,0,0,1,1.68-3.07,4.21,4.21,0,0,1,2.93-1.17,3.12,3.12,0,0,1,1.54.39A2.14,2.14,0,0,1,500.21,574.1Zm-1.15,2.07a3.09,3.09,0,0,0-.08-1.37,1.49,1.49,0,0,0-1.6-1,2.45,2.45,0,0,0-1.66.66,3.14,3.14,0,0,0-1,1.67Z" transform="translate(-370.04 -429.44)"/><path class="cls-2" d="M502.38,578.25a1.7,1.7,0,0,0,.12,1c.24.43.77.64,1.59.64a2.87,2.87,0,0,0,1.36-.32,1.38,1.38,0,0,0,.76-1,.68.68,0,0,0-.28-.77,4.29,4.29,0,0,0-1.05-.37l-1-.27a3.79,3.79,0,0,1-1.36-.56,1.32,1.32,0,0,1-.54-1.47,2.9,2.9,0,0,1,1.19-1.81,3.86,3.86,0,0,1,2.3-.68,2.41,2.41,0,0,1,2.34,1,2,2,0,0,1,.17,1.42h-1.24a1.28,1.28,0,0,0-.15-.82,1.69,1.69,0,0,0-1.47-.52,2.21,2.21,0,0,0-1.19.29,1.19,1.19,0,0,0-.54.75.74.74,0,0,0,.33.82,2.46,2.46,0,0,0,.8.33l.82.21a5.42,5.42,0,0,1,1.77.67,1.43,1.43,0,0,1,.42,1.58,3,3,0,0,1-1.17,1.81,4,4,0,0,1-2.58.77,2.68,2.68,0,0,1-2.31-.8,2.53,2.53,0,0,1-.37-2Z" transform="translate(-370.04 -429.44)"/></svg>